# xmcd CD database file
#
# Track frame offsets:
#	150
#	23175
#	44700
#	69525
#	94950
#	108600
#	131625
#	145425
#	163050
#	182250
#
# Disc length: 2760 seconds
#
# Revision: 0
# Processed by: cddbd v1.5.2PL0 Copyright (c) Steve Scherf et al.
# Submitted via: CDex 1.51
#
DISCID=930ac60a
DTITLE=Simone - Taking A Chance On Love
DYEAR=2007
DGENRE=Jazz
TTITLE0=Don't Let Me Be Lonely Tonight
TTITLE1=Our Love Is Here To Stay
TTITLE2=The Very Thought Of You
TTITLE3=Fotografia
TTITLE4=Little Boy
TTITLE5=Close To You
TTITLE6=Taking A Chance On Love
TTITLE7=I Wish You Love
TTITLE8=No More Blues
TTITLE9=Blame It In My Youth
EXTD=YEAR: 2007
EXTT0=
EXTT1=
EXTT2=
EXTT3=
EXTT4=
EXTT5=
EXTT6=
EXTT7=
EXTT8=
EXTT9=
PLAYORDER=
